<svg xmlns="http://www.w3.org/2000/svg" width="12" height="12" viewBox="0 0 12 12">
  <g id="phone-call" transform="translate(-0.539)">
    <g id="Group_9" data-name="Group 9" transform="translate(0.539 0)">
      <path id="Path_12567" data-name="Path 12567" d="M12.224,8.807,10.546,7.132a1.117,1.117,0,0,0-1.858.419,1.142,1.142,0,0,1-1.319.718,5.17,5.17,0,0,1-3.117-3.11,1.084,1.084,0,0,1,.719-1.316,1.113,1.113,0,0,0,.42-1.854L3.714.314A1.2,1.2,0,0,0,2.1.314L.957,1.45c-1.139,1.2.12,4.366,2.937,7.177s5.993,4.127,7.192,2.931l1.139-1.136A1.193,1.193,0,0,0,12.224,8.807Z" transform="translate(-0.539 0)" fill="#b8c0cc"/>
    </g>
  </g>
</svg>
